<?xml version="1.0" encoding="UTF-8"?>
<svg width="17px" height="11px" viewBox="0 0 17 11" version="1.1" xmlns="http://www.w3.org/2000/svg" xmlns:xlink="http://www.w3.org/1999/xlink">
    <!-- Generator: Sketch 58 (84663) - https://sketch.com -->
    <title>Artboard</title>
    <desc>Created with Sketch.</desc>
    <g id="Artboard" stroke="none" stroke-width="1" fill="none" fill-rule="evenodd">
        <path d="M11,3 C11.5522847,3 12,3.44771525 12,4 L12,5.01 L14,5.01077178 L14,6.01077178 L12,6.01 L12,7 C12,7.55228475 11.5522847,8 11,8 L6,8 C5.44771525,8 5,7.55228475 5,7 L5,6 L3,6 L3,5 L5,5 L5,4 C5,3.44771525 5.44771525,3 6,3 L11,3 Z M11,4 L6,4 L6,5 L7,5 L7,6 L6,6 L6,7 L11,7 L11,6.01 L10,6.01077178 L10,5.01077178 L11,5.01 L11,4 Z" id="Shape" fill="#000000" fill-rule="nonzero"></path>
    </g>
</svg>